<svg width="570.802" height="92.5" viewBox="0 0 570.802 92.5" xmlns="http://www.w3.org/2000/svg"><g id="svgGroup" stroke-linecap="round" fill-rule="evenodd" font-size="9pt" stroke="#ffffff" stroke-width="0.25mm" fill="#ffffff" style="stroke:#ffffff;stroke-width:0.25mm;fill:#ffffff"><path d="M 414.7 71.5 L 397.4 71.5 L 397.4 20 L 414 20 L 414 24.5 L 413.8 27.7 L 414 27.7 Q 419.9 18.8 429.3 18.8 Q 439.6 18.8 443.7 27.5 L 443.9 27.5 A 16.056 16.056 0 0 1 447.306 23.595 A 22.027 22.027 0 0 1 450.55 21.35 A 19.441 19.441 0 0 1 460.316 18.8 A 22.829 22.829 0 0 1 460.4 18.8 A 20.376 20.376 0 0 1 465.671 19.447 A 14.896 14.896 0 0 1 472.55 23.4 A 13.743 13.743 0 0 1 475.58 28.26 Q 476.387 30.386 476.766 33.03 A 35.855 35.855 0 0 1 477.1 38.1 L 477.1 71.5 L 459.8 71.5 L 459.8 41 Q 459.8 36.655 458.013 35.214 A 3.413 3.413 0 0 0 455.8 34.5 A 8.669 8.669 0 0 0 450.993 35.804 Q 447.862 37.826 446.572 42.979 A 24.102 24.102 0 0 0 446.3 44.2 Q 445.999 45.557 445.924 48.278 A 70.792 70.792 0 0 0 445.9 50.2 L 445.9 71.5 L 428.6 71.5 L 428.6 41 Q 428.6 36.655 426.813 35.214 A 3.413 3.413 0 0 0 424.6 34.5 A 8.615 8.615 0 0 0 419.831 35.794 Q 416.746 37.781 415.433 42.819 A 23.369 23.369 0 0 0 415.2 43.8 A 19.294 19.294 0 0 0 414.937 45.456 Q 414.7 47.45 414.7 50.2 L 414.7 71.5 Z M 185.2 89.8 L 183.7 88.9 L 189.2 76.2 Q 192 78.1 194.5 78.1 Q 200.666 78.1 202.777 72.958 A 10.889 10.889 0 0 0 202.8 72.9 L 203.8 70.5 L 181.9 20 L 201.5 20 L 209.1 43.7 L 211 51.7 L 211.2 51.7 A 337.045 337.045 0 0 1 211.681 49.381 Q 212.158 47.125 212.556 45.428 A 97.529 97.529 0 0 1 212.9 44 L 219.4 20 L 238.3 20 L 217.2 77 A 28.9 28.9 0 0 1 214.422 82.602 A 20.274 20.274 0 0 1 208.35 88.75 Q 202.5 92.5 195.7 92.5 Q 192.7 92.5 189.7 91.6 A 36.823 36.823 0 0 1 188.051 91.066 Q 186.511 90.523 185.516 89.98 A 8.844 8.844 0 0 1 185.2 89.8 Z M 0 49.5 L 0 44.3 L 17.5 44.3 L 17.5 48.1 A 18.435 18.435 0 0 0 17.611 50.192 Q 17.878 52.521 18.787 53.932 A 5.31 5.31 0 0 0 18.9 54.1 A 5.266 5.266 0 0 0 22.714 56.592 A 8.453 8.453 0 0 0 24.1 56.7 A 7.134 7.134 0 0 0 26.145 56.422 A 5.458 5.458 0 0 0 28.7 54.8 Q 30.4 52.9 30.4 49.1 L 30.4 15 L 11.2 15 L 11.2 0 L 47.9 0 L 47.9 49.5 A 27.847 27.847 0 0 1 47.061 56.535 A 19.363 19.363 0 0 1 40.8 66.65 A 25.181 25.181 0 0 1 24.053 72.7 A 31.652 31.652 0 0 1 23.9 72.7 Q 14.2 72.7 7.1 66.6 A 19.918 19.918 0 0 1 0.394 54.406 A 29.315 29.315 0 0 1 0 49.5 Z M 536.6 71.5 L 519.3 71.5 L 519.3 20 L 535.9 20 L 535.9 24.5 L 535.7 27.7 L 535.9 27.7 A 17.704 17.704 0 0 1 542.395 21.166 Q 546.577 18.8 552.3 18.8 A 25.454 25.454 0 0 1 559.733 19.791 Q 567.904 22.288 570.042 31.077 A 29.782 29.782 0 0 1 570.8 38.1 L 570.8 71.5 L 553.5 71.5 L 553.5 41.3 Q 553.5 35.294 549.053 34.593 A 8.05 8.05 0 0 0 547.8 34.5 A 12.127 12.127 0 0 0 543.615 35.178 Q 540.211 36.423 538.413 39.952 A 14.526 14.526 0 0 0 537.6 41.9 A 17.422 17.422 0 0 0 536.852 45.037 Q 536.632 46.529 536.604 48.215 A 29.695 29.695 0 0 0 536.6 48.7 L 536.6 71.5 Z M 327.7 71.5 L 309.7 71.5 L 305.3 56.5 L 283 56.5 L 278.7 71.5 L 260.7 71.5 L 285 0 L 303.4 0 L 327.7 71.5 Z M 366.1 21.9 L 367.2 22.9 L 367.4 22.9 Q 367.314 22.041 367.302 20.96 A 32.18 32.18 0 0 1 367.3 20.6 L 367.3 0 L 384.6 0 L 384.6 71.5 L 368.4 71.5 L 368.4 68.1 L 368.5 65.2 L 368.3 65.2 Q 368.1 65.5 367.75 66 A 4.165 4.165 0 0 1 367.552 66.257 Q 367.116 66.784 366.1 67.8 Q 364.8 69.1 363.25 70.1 Q 361.7 71.1 359.05 71.9 A 19.069 19.069 0 0 1 354.335 72.68 A 21.903 21.903 0 0 1 353.4 72.7 A 23.906 23.906 0 0 1 345.348 71.399 A 20.398 20.398 0 0 1 336.55 65.25 Q 330.2 57.8 330.2 45.7 A 36.359 36.359 0 0 1 331.121 37.286 A 25.212 25.212 0 0 1 336.75 26.2 A 21.366 21.366 0 0 1 352.376 18.831 A 28.224 28.224 0 0 1 353.7 18.8 A 33.984 33.984 0 0 1 357.464 18.997 Q 359.341 19.207 360.965 19.639 A 19.378 19.378 0 0 1 361.7 19.85 A 30.232 30.232 0 0 1 363.162 20.339 Q 365.26 21.107 366.046 21.847 A 2.526 2.526 0 0 1 366.1 21.9 Z M 124.7 52.5 L 124.7 0 L 142 0 L 142 50.2 A 23.951 23.951 0 0 0 142.056 51.9 Q 142.172 53.52 142.528 54.532 A 3.781 3.781 0 0 0 142.95 55.4 A 2.702 2.702 0 0 0 144.099 56.332 Q 145.022 56.753 146.473 56.795 A 11.333 11.333 0 0 0 146.8 56.8 L 148.9 56.7 L 148.9 71.7 A 38.576 38.576 0 0 1 145.827 71.954 A 48.042 48.042 0 0 1 143.7 72 A 41.561 41.561 0 0 1 140.512 71.884 Q 138.97 71.765 137.625 71.524 A 22.593 22.593 0 0 1 136.75 71.35 A 16.707 16.707 0 0 1 132.971 70.004 A 21.19 21.19 0 0 1 130.85 68.8 A 10.432 10.432 0 0 1 127.891 65.868 Q 127.036 64.619 126.391 63.028 A 18.555 18.555 0 0 1 126.3 62.8 Q 125.056 59.613 124.78 55.157 A 42.869 42.869 0 0 1 124.7 52.5 Z M 157 52.5 L 157 0 L 174.3 0 L 174.3 50.2 A 23.951 23.951 0 0 0 174.356 51.9 Q 174.472 53.52 174.828 54.532 A 3.781 3.781 0 0 0 175.25 55.4 A 2.702 2.702 0 0 0 176.399 56.332 Q 177.322 56.753 178.773 56.795 A 11.333 11.333 0 0 0 179.1 56.8 L 181.2 56.7 L 181.2 71.7 A 38.576 38.576 0 0 1 178.127 71.954 A 48.042 48.042 0 0 1 176 72 A 41.561 41.561 0 0 1 172.812 71.884 Q 171.27 71.765 169.925 71.524 A 22.593 22.593 0 0 1 169.05 71.35 A 16.707 16.707 0 0 1 165.271 70.004 A 21.19 21.19 0 0 1 163.15 68.8 A 10.432 10.432 0 0 1 160.191 65.868 Q 159.336 64.619 158.691 63.028 A 18.555 18.555 0 0 1 158.6 62.8 Q 157.356 59.613 157.08 55.157 A 42.869 42.869 0 0 1 157 52.5 Z M 58.035 47.415 A 24.384 24.384 0 0 0 66.4 65.25 A 28.573 28.573 0 0 0 76.784 71.17 A 34.12 34.12 0 0 0 87.2 72.7 A 38.655 38.655 0 0 0 90.609 72.553 A 29.387 29.387 0 0 0 108 65.25 A 24.137 24.137 0 0 0 114.792 55.461 A 27.408 27.408 0 0 0 116.4 45.9 Q 116.4 33.9 107.95 26.35 A 28.726 28.726 0 0 0 97.857 20.459 A 33.626 33.626 0 0 0 87.1 18.8 A 38.112 38.112 0 0 0 84.817 18.867 A 29.217 29.217 0 0 0 66.4 26.4 A 24.781 24.781 0 0 0 59.725 35.999 A 27.501 27.501 0 0 0 58 45.9 A 32.542 32.542 0 0 0 58.035 47.415 Z M 506.5 71.5 L 489.2 71.5 L 489.2 20 L 506.5 20 L 506.5 71.5 Z M 75.5 45.9 A 14.961 14.961 0 0 0 76.009 49.902 A 11.147 11.147 0 0 0 78.9 54.9 A 11.273 11.273 0 0 0 87.047 58.299 A 14.024 14.024 0 0 0 87.2 58.3 A 11.629 11.629 0 0 0 92.365 57.164 A 11.638 11.638 0 0 0 95.5 54.9 A 11.409 11.409 0 0 0 98.701 48.483 A 16.099 16.099 0 0 0 98.9 45.9 A 15.522 15.522 0 0 0 98.381 41.783 A 11.556 11.556 0 0 0 95.5 36.7 A 11.101 11.101 0 0 0 87.505 33.203 A 13.527 13.527 0 0 0 87.2 33.2 A 11.106 11.106 0 0 0 79.114 36.485 A 13.362 13.362 0 0 0 78.9 36.7 Q 75.5 40.2 75.5 45.9 Z M 350.5 36.7 A 11.105 11.105 0 0 0 348.136 41.245 Q 347.701 42.875 347.619 44.797 A 21.301 21.301 0 0 0 347.6 45.7 A 18.909 18.909 0 0 0 347.978 49.589 Q 348.505 52.099 349.769 54.029 A 11.315 11.315 0 0 0 350.4 54.9 Q 353.2 58.4 357.7 58.4 A 9.281 9.281 0 0 0 364.579 55.54 A 11.399 11.399 0 0 0 364.9 55.2 Q 367.202 52.66 367.677 48.168 A 23.5 23.5 0 0 0 367.8 45.7 Q 367.8 40.7 365.15 37.05 A 8.467 8.467 0 0 0 359.008 33.472 A 11.528 11.528 0 0 0 357.7 33.4 Q 353.4 33.4 350.5 36.7 Z M 297.2 28.6 L 294.3 16.3 L 294.1 16.3 Q 292.5 24.1 291.2 28.6 L 287.1 42.5 L 301.2 42.5 L 297.2 28.6 Z M 506.3 13.5 L 489.4 13.5 L 489.4 0 L 506.3 0 L 506.3 13.5 Z" vector-effect="non-scaling-stroke"/></g></svg>