<svg width="518.3" height="94.301" viewBox="0 0 518.3 94.301" xmlns="http://www.w3.org/2000/svg"><g id="svgGroup" stroke-linecap="round" fill-rule="evenodd" font-size="9pt" stroke="#000" stroke-width="0.25mm" fill="#000" style="stroke:#000;stroke-width:0.25mm;fill:#000"><path d="M 373.8 70.2 L 350.9 70.2 L 350.9 68.2 L 353.1 67.6 A 5.877 5.877 0 0 0 353.913 67.283 Q 354.319 67.086 354.616 66.845 A 2.247 2.247 0 0 0 355.2 66.15 A 4.395 4.395 0 0 0 355.53 65.309 Q 355.648 64.896 355.719 64.407 A 9.981 9.981 0 0 0 355.8 63.6 L 355.8 43.8 L 355.8 38.2 A 127.773 127.773 0 0 0 355.786 36.363 Q 355.775 35.55 355.753 34.659 A 229.138 229.138 0 0 0 355.7 32.8 A 9.359 9.359 0 0 0 355.651 31.811 Q 355.599 31.323 355.492 30.918 A 3.664 3.664 0 0 0 355.2 30.15 A 2.031 2.031 0 0 0 354.565 29.446 Q 354.001 29.044 353.059 28.814 A 7.414 7.414 0 0 0 353 28.8 L 350.9 28.3 L 350.9 26.5 L 367.1 20.7 L 368.3 21.8 L 369 28.5 Q 372.5 25.3 376.8 23 A 19.356 19.356 0 0 1 382.392 20.997 A 17.449 17.449 0 0 1 385.6 20.7 A 20.329 20.329 0 0 1 388.51 20.895 Q 390.08 21.123 391.358 21.615 A 9.159 9.159 0 0 1 393.4 22.7 A 10.682 10.682 0 0 1 396.137 25.611 Q 396.93 26.83 397.532 28.357 A 19.073 19.073 0 0 1 397.7 28.8 A 29.722 29.722 0 0 1 405.245 23.268 A 28.117 28.117 0 0 1 406.1 22.85 A 23.302 23.302 0 0 1 411.244 21.112 A 19.474 19.474 0 0 1 415.2 20.7 A 21.677 21.677 0 0 1 419.028 21.016 Q 421.126 21.393 422.774 22.22 A 10.079 10.079 0 0 1 425.4 24.1 A 10.307 10.307 0 0 1 427.754 27.902 Q 428.343 29.504 428.6 31.487 A 25.777 25.777 0 0 1 428.8 34.8 L 428.8 63.7 Q 428.8 66.9 431.6 67.7 L 433.5 68.2 L 433.5 70.2 L 411 70.2 L 411 68.2 L 412.8 67.7 A 4.037 4.037 0 0 0 414.338 66.809 Q 415.11 66.073 415.369 64.899 A 6.022 6.022 0 0 0 415.5 63.6 L 415.5 34.3 Q 415.5 30.879 414.519 29.198 A 3.662 3.662 0 0 0 413.95 28.45 Q 412.83 27.329 410.689 27.019 A 12.502 12.502 0 0 0 408.9 26.9 Q 406.2 26.9 403.8 28 A 19.646 19.646 0 0 0 401.768 29.092 Q 400.222 30.034 398.5 31.4 A 29.163 29.163 0 0 1 398.931 34.41 Q 399.1 36.228 399.1 38.3 L 399.1 63.7 A 9.601 9.601 0 0 0 399.207 64.689 Q 399.289 65.191 399.424 65.605 A 3.9 3.9 0 0 0 399.75 66.35 A 2.313 2.313 0 0 0 400.464 67.098 Q 400.789 67.32 401.218 67.486 A 5.727 5.727 0 0 0 401.9 67.7 L 403.6 68.2 L 403.6 70.2 L 381 70.2 L 381 68.2 L 383.1 67.6 Q 384.101 67.287 384.691 66.799 A 2.417 2.417 0 0 0 385.25 66.15 A 3.627 3.627 0 0 0 385.606 65.271 Q 385.722 64.843 385.768 64.334 A 8.029 8.029 0 0 0 385.8 63.6 L 385.8 34.4 A 17.896 17.896 0 0 0 385.707 32.5 Q 385.486 30.442 384.747 29.214 A 4.19 4.19 0 0 0 384.3 28.6 A 4.381 4.381 0 0 0 382.605 27.445 Q 381.879 27.156 380.964 27.02 A 12.053 12.053 0 0 0 379.2 26.9 A 11.334 11.334 0 0 0 375.08 27.727 Q 373.452 28.36 371.748 29.478 A 27.196 27.196 0 0 0 369.3 31.3 L 369.3 63.7 Q 369.3 67 372.1 67.7 L 373.8 68.2 L 373.8 70.2 Z M 166.9 84.8 L 167.5 85.6 Q 169.781 88.376 171.766 85.549 A 7.007 7.007 0 0 0 171.8 85.5 A 20.935 20.935 0 0 0 172.928 83.859 Q 173.647 82.706 174.35 81.3 Q 175.19 79.62 176.143 77.218 A 100.555 100.555 0 0 0 177.1 74.7 L 158.1 29.3 Q 157.601 27.946 157.001 27.023 A 6.391 6.391 0 0 0 156.5 26.35 Q 155.774 25.503 154.463 24.884 A 10.273 10.273 0 0 0 153.8 24.6 L 152.1 24 L 152.1 22.2 L 176.8 22.2 L 176.8 24 L 174.7 24.6 A 6.107 6.107 0 0 0 173.782 24.969 Q 173.329 25.2 173.019 25.482 A 1.947 1.947 0 0 0 172.35 26.75 Q 172.2 28.2 173 30.5 L 183.2 57.1 L 193 30.3 Q 193.8 28.1 193.6 26.6 A 1.914 1.914 0 0 0 192.732 25.244 Q 192.39 25.007 191.917 24.833 A 6.174 6.174 0 0 0 191.1 24.6 L 188.9 24 L 188.9 22.2 L 203.8 22.2 L 203.8 24 L 201.6 24.7 A 9.711 9.711 0 0 0 200.351 25.127 Q 199.737 25.389 199.267 25.713 A 3.991 3.991 0 0 0 198.45 26.45 Q 197.786 27.255 197.194 28.573 A 18.233 18.233 0 0 0 196.7 29.8 L 180.7 72.8 A 105.386 105.386 0 0 1 178.312 78.824 Q 175.468 85.359 172.55 89.05 A 14.986 14.986 0 0 1 169.087 92.3 A 12.026 12.026 0 0 1 162.3 94.3 A 13.6 13.6 0 0 1 159.765 94.078 Q 158.323 93.804 157.184 93.193 A 7.196 7.196 0 0 1 156 92.4 A 6.09 6.09 0 0 1 153.721 87.971 A 7.927 7.927 0 0 1 153.7 87.4 Q 153.7 84.6 155.65 82.95 Q 157.6 81.3 160 81.3 Q 162.5 81.3 164.1 82.2 A 8.145 8.145 0 0 1 166.194 83.907 A 10.124 10.124 0 0 1 166.9 84.8 Z M 487.9 70.2 L 465 70.2 L 465 68.3 L 466.6 67.9 A 4.788 4.788 0 0 0 468.437 66.909 Q 469.9 65.597 469.9 63 L 469.9 33.5 A 13.136 13.136 0 0 0 469.789 32.28 Q 469.616 31.061 469.214 30.276 A 3.843 3.843 0 0 0 469.2 30.25 A 2.384 2.384 0 0 0 468.372 29.363 Q 468.013 29.127 467.535 28.955 A 6.519 6.519 0 0 0 466.6 28.7 L 465 28.3 L 465 26.5 L 481.2 20.7 L 482.4 21.8 L 483.1 28 Q 486.7 24.8 491.15 22.75 Q 495.6 20.7 499.9 20.7 A 19.399 19.399 0 0 1 503.903 21.088 Q 506.401 21.615 508.292 22.858 A 10.783 10.783 0 0 1 510.05 24.3 A 11.138 11.138 0 0 1 512.598 28.51 Q 513.6 31.369 513.6 35.3 L 513.6 63.1 A 6.338 6.338 0 0 0 513.868 65.01 Q 514.492 66.99 516.575 67.794 A 6.748 6.748 0 0 0 517.2 68 L 518.3 68.3 L 518.3 70.2 L 495.3 70.2 L 495.3 68.3 L 496.8 67.9 A 5.082 5.082 0 0 0 498.611 66.887 Q 500.1 65.553 500.1 63 L 500.1 33.3 A 12.95 12.95 0 0 0 499.982 31.482 Q 499.85 30.557 499.573 29.818 A 4.787 4.787 0 0 0 498.6 28.2 A 4.391 4.391 0 0 0 496.979 27.135 Q 495.624 26.6 493.6 26.6 A 12.733 12.733 0 0 0 488.76 27.609 Q 486.974 28.339 485.14 29.597 A 27.051 27.051 0 0 0 483.4 30.9 L 483.4 63.1 Q 483.4 67 486.9 68 L 487.9 68.3 L 487.9 70.2 Z M 243 70.2 L 227.7 70.2 L 227.7 68.1 L 230.4 67.3 Q 232.5 66.7 233.65 65.5 A 6.888 6.888 0 0 0 234.63 64.177 Q 235.004 63.531 235.306 62.742 A 12.92 12.92 0 0 0 235.5 62.2 L 255.7 3.8 L 264 3.8 L 284.1 62.6 A 16.369 16.369 0 0 0 284.66 63.96 Q 284.948 64.573 285.258 65.071 A 6.889 6.889 0 0 0 285.9 65.95 A 4.756 4.756 0 0 0 286.888 66.795 Q 287.388 67.123 288.025 67.4 A 11.299 11.299 0 0 0 289.1 67.8 L 290.6 68.2 L 290.6 70.2 L 265.2 70.2 L 265.2 68.2 L 266.9 67.7 A 6.443 6.443 0 0 0 267.946 67.272 Q 268.483 66.989 268.853 66.629 A 2.603 2.603 0 0 0 269.55 65.5 Q 269.963 64.125 269.409 62.161 A 11.418 11.418 0 0 0 269.3 61.8 L 265.1 48.9 L 243 48.9 L 238.7 61.6 Q 238.073 63.573 238.249 64.903 A 3.816 3.816 0 0 0 238.3 65.2 Q 238.6 66.6 240.8 67.4 L 243 68.1 L 243 70.2 Z M 329.1 24.1 L 329.1 11.1 A 10.768 10.768 0 0 0 329.052 10.038 Q 328.923 8.74 328.45 8.05 A 2.455 2.455 0 0 0 327.826 7.438 Q 327.203 6.999 326.165 6.698 A 10.241 10.241 0 0 0 325.8 6.6 L 323.8 6.2 L 323.8 4.3 L 341.2 0 L 342.5 0.9 L 342.1 15 L 342.1 63.1 A 8.528 8.528 0 0 0 342.199 64.434 Q 342.315 65.17 342.57 65.777 A 4.639 4.639 0 0 0 342.8 66.25 A 3.273 3.273 0 0 0 343.998 67.457 Q 344.451 67.73 345.027 67.918 A 6.507 6.507 0 0 0 345.3 68 L 346.4 68.3 L 346.4 70.2 L 329.8 71.3 L 328.9 67.1 A 20.8 20.8 0 0 1 323.775 70.003 A 23.953 23.953 0 0 1 322.7 70.4 A 22.235 22.235 0 0 1 317.557 71.483 A 27.259 27.259 0 0 1 315 71.6 A 22.569 22.569 0 0 1 308.417 70.666 A 19.934 19.934 0 0 1 304.4 68.95 A 16.987 16.987 0 0 1 298.503 63.344 A 22.077 22.077 0 0 1 297.05 60.75 A 24.701 24.701 0 0 1 295.25 55.364 Q 294.4 51.471 294.4 46.6 Q 294.4 39.596 296.39 34.482 A 22.317 22.317 0 0 1 297.4 32.25 A 23.013 23.013 0 0 1 301.026 27.078 A 19.253 19.253 0 0 1 305.4 23.6 Q 310.4 20.7 316.4 20.7 A 27.623 27.623 0 0 1 323.094 21.498 A 25.893 25.893 0 0 1 323.3 21.55 Q 326.6 22.4 329.1 24.1 Z M 14.5 64.3 L 15.8 66.6 A 2.257 2.257 0 0 0 16.323 66.997 Q 16.82 67.264 17.4 67.2 A 1.436 1.436 0 0 0 18.485 66.519 A 2.366 2.366 0 0 0 18.7 66.1 A 15.323 15.323 0 0 0 19.041 64.708 Q 19.356 63.134 19.527 60.962 A 51.248 51.248 0 0 0 19.55 60.65 Q 19.742 58.009 19.787 54.517 A 172.74 172.74 0 0 0 19.8 52.3 Q 19.8 46.933 19.6 38.685 A 1112.055 1112.055 0 0 0 19.55 36.7 Q 19.327 28.112 19.063 15.204 A 7331.259 7331.259 0 0 1 19 12.1 A 10.554 10.554 0 0 0 18.845 10.694 Q 18.712 9.973 18.476 9.378 A 5.159 5.159 0 0 0 18.15 8.7 A 3.805 3.805 0 0 0 16.857 7.382 Q 16.31 7.037 15.6 6.8 L 13.4 6.2 L 13.4 4.1 L 38.9 4.1 L 38.9 6.2 L 36.8 6.8 Q 34.9 7.4 34.25 8.6 Q 33.757 9.511 33.638 10.882 A 10.637 10.637 0 0 0 33.6 11.8 L 33.6 31.4 A 193.988 193.988 0 0 1 33.506 37.655 Q 33.325 43.231 32.8 47.3 A 50.73 50.73 0 0 1 31.89 52.4 Q 31.282 54.989 30.426 57.196 A 29.391 29.391 0 0 1 30.1 58 Q 27.6 64.8 22.05 68.35 Q 16.5 71.9 9.8 71.9 A 20.503 20.503 0 0 1 7.089 71.733 Q 5.753 71.554 4.661 71.184 A 8.146 8.146 0 0 1 2.5 70.1 A 6.042 6.042 0 0 1 0.748 68.202 Q 0.059 66.997 0.005 65.463 A 7.487 7.487 0 0 1 0 65.2 A 6.304 6.304 0 0 1 0.25 63.379 A 4.766 4.766 0 0 1 1.85 61 Q 3.693 59.506 6.181 59.5 A 8.37 8.37 0 0 1 6.2 59.5 Q 8.8 59.5 10.75 60.6 A 8.795 8.795 0 0 1 12.369 61.795 Q 13.051 62.421 13.713 63.243 A 18.177 18.177 0 0 1 14.5 64.3 Z M 121 70.2 L 97.7 70.2 L 97.7 68.3 L 99.2 67.9 Q 101.773 67.043 102.34 64.483 A 7.321 7.321 0 0 0 102.5 62.9 Q 102.5 59.5 102.55 56.05 Q 102.6 52.6 102.6 49.2 L 102.6 11.2 A 10.157 10.157 0 0 0 102.545 10.102 Q 102.415 8.909 101.979 8.175 A 2.83 2.83 0 0 0 101.9 8.05 A 2.777 2.777 0 0 0 101.155 7.314 Q 100.465 6.836 99.351 6.539 A 9.703 9.703 0 0 0 99.2 6.5 L 97.7 6.1 L 97.7 4.2 L 115.2 0 L 116.5 0.9 L 116.1 15 L 116.1 62.9 Q 116.178 64.46 116.652 65.564 A 4.868 4.868 0 0 0 116.95 66.15 Q 117.615 67.257 119.181 67.776 A 7.001 7.001 0 0 0 119.6 67.9 L 121 68.3 L 121 70.2 Z M 149 70.2 L 125.7 70.2 L 125.7 68.3 L 127.2 67.9 Q 129.773 67.043 130.34 64.483 A 7.321 7.321 0 0 0 130.5 62.9 Q 130.5 59.5 130.55 56.05 Q 130.6 52.6 130.6 49.2 L 130.6 11.2 A 10.157 10.157 0 0 0 130.545 10.102 Q 130.415 8.909 129.979 8.175 A 2.83 2.83 0 0 0 129.9 8.05 A 2.777 2.777 0 0 0 129.155 7.314 Q 128.465 6.836 127.351 6.539 A 9.703 9.703 0 0 0 127.2 6.5 L 125.7 6.1 L 125.7 4.2 L 143.2 0 L 144.5 0.9 L 144.1 15 L 144.1 62.9 Q 144.178 64.46 144.652 65.564 A 4.868 4.868 0 0 0 144.95 66.15 Q 145.615 67.257 147.181 67.776 A 7.001 7.001 0 0 0 147.6 67.9 L 149 68.3 L 149 70.2 Z M 61.566 70.873 A 29.883 29.883 0 0 0 68.3 71.6 A 31.97 31.97 0 0 0 73.644 71.171 A 23.885 23.885 0 0 0 81.3 68.55 Q 86.8 65.5 89.85 59.75 A 25.344 25.344 0 0 0 92.317 52.601 A 34.506 34.506 0 0 0 92.9 46.1 A 33.068 33.068 0 0 0 92.343 39.878 A 23.727 23.727 0 0 0 89.65 32.45 Q 86.4 26.8 80.85 23.75 A 23.847 23.847 0 0 0 75.909 21.719 A 27.541 27.541 0 0 0 68.3 20.7 A 30.383 30.383 0 0 0 65.723 20.808 A 24.831 24.831 0 0 0 55.75 23.75 Q 50.2 26.8 46.95 32.5 A 23.957 23.957 0 0 0 44.322 39.609 A 32.303 32.303 0 0 0 43.7 46.1 A 34.558 34.558 0 0 0 44.243 52.374 A 25.065 25.065 0 0 0 46.75 59.7 Q 49.8 65.4 55.35 68.5 A 23.522 23.522 0 0 0 61.566 70.873 Z M 460.6 70.2 L 437.7 70.2 L 437.7 68.3 L 439.2 67.9 A 7.307 7.307 0 0 0 440.273 67.491 Q 441.408 66.944 441.9 66.1 A 5.078 5.078 0 0 0 442.37 64.993 Q 442.641 64.088 442.7 62.9 L 442.7 44.5 L 442.7 38.75 A 152.378 152.378 0 0 0 442.606 33.475 A 165.662 165.662 0 0 0 442.6 33.3 A 8.644 8.644 0 0 0 442.52 32.079 Q 442.429 31.447 442.237 30.929 A 3.898 3.898 0 0 0 441.85 30.15 A 2.937 2.937 0 0 0 440.883 29.243 Q 440.171 28.814 439.1 28.6 L 437.7 28.3 L 437.7 26.5 L 455.2 20.7 L 456.4 21.8 L 456.1 36 L 456.1 63 A 8.678 8.678 0 0 0 456.189 64.28 Q 456.358 65.413 456.85 66.2 Q 457.467 67.187 458.862 67.768 A 7.65 7.65 0 0 0 459.5 68 L 460.6 68.3 L 460.6 70.2 Z M 68.3 68.8 A 10.837 10.837 0 0 0 70.883 68.508 A 7.705 7.705 0 0 0 74.15 66.85 A 7.309 7.309 0 0 0 75.634 65.02 Q 76.694 63.224 77.317 60.395 A 26.684 26.684 0 0 0 77.4 60 Q 78.304 55.574 78.391 47.965 A 145.131 145.131 0 0 0 78.4 46.3 A 128.32 128.32 0 0 0 78.307 41.243 Q 78.125 36.644 77.586 33.456 A 32.145 32.145 0 0 0 77.4 32.45 A 22.275 22.275 0 0 0 76.739 29.903 Q 75.876 27.28 74.502 25.881 A 6.002 6.002 0 0 0 74.15 25.55 A 7.799 7.799 0 0 0 70.53 23.812 A 11.143 11.143 0 0 0 68.3 23.6 A 10.808 10.808 0 0 0 65.797 23.874 A 7.492 7.492 0 0 0 62.5 25.55 Q 60.442 27.375 59.39 31.827 A 27.831 27.831 0 0 0 59.25 32.45 A 38.257 38.257 0 0 0 58.697 35.929 Q 58.27 39.583 58.21 44.616 A 141.362 141.362 0 0 0 58.2 46.3 Q 58.2 55.1 59.25 60 Q 60.209 64.475 62.128 66.49 A 6.125 6.125 0 0 0 62.5 66.85 A 7.54 7.54 0 0 0 65.966 68.564 A 10.961 10.961 0 0 0 68.3 68.8 Z M 328.6 64.2 L 328.6 27 Q 324.9 24.7 320.6 24.7 A 8.839 8.839 0 0 0 314.586 27.079 Q 313.4 28.13 312.341 29.646 A 18.816 18.816 0 0 0 312.2 29.85 A 16.034 16.034 0 0 0 310.28 33.903 Q 308.7 38.741 308.7 46.4 A 62.5 62.5 0 0 0 308.907 51.675 Q 309.348 56.861 310.732 60.104 A 12.033 12.033 0 0 0 312 62.4 A 12.066 12.066 0 0 0 314.68 65.158 A 9.631 9.631 0 0 0 320.5 67 A 13.088 13.088 0 0 0 327.522 64.932 A 16.547 16.547 0 0 0 328.6 64.2 Z M 254.4 15.9 L 244 46 L 264.2 46 L 254.4 15.9 Z M 446.074 14.646 A 8.588 8.588 0 0 0 449.2 15.2 A 10.226 10.226 0 0 0 449.406 15.198 A 7.966 7.966 0 0 0 454.8 13.1 Q 457.1 11 457.1 7.8 A 9.14 9.14 0 0 0 457.091 7.386 A 6.747 6.747 0 0 0 454.8 2.45 Q 452.5 0.4 449.2 0.4 Q 445.9 0.4 443.6 2.45 A 6.628 6.628 0 0 0 441.725 5.195 A 7.685 7.685 0 0 0 441.3 7.8 Q 441.3 11 443.6 13.1 A 7.852 7.852 0 0 0 446.074 14.646 Z" vector-effect="non-scaling-stroke"/></g></svg>