<svg width="242" height="91.502" viewBox="0 0 242 91.502" xmlns="http://www.w3.org/2000/svg"><g id="svgGroup" stroke-linecap="round" fill-rule="evenodd" font-size="9pt" stroke="#000" stroke-width="0.25mm" fill="#000" style="stroke:#000;stroke-width:0.25mm;fill:#000"><path d="M 199.7 74.801 L 201 75.001 L 201 88.501 A 7.718 7.718 0 0 0 204.732 86.711 A 10.771 10.771 0 0 0 206.1 85.301 A 17.172 17.172 0 0 0 207.377 83.474 Q 208.649 81.411 210.068 78.198 A 86.863 86.863 0 0 0 211 76.001 L 213 71.001 L 187 23.001 L 182 21.501 L 182 20.001 L 194.5 20.001 A 20.398 20.398 0 0 1 197.786 20.25 Q 200.737 20.732 202.75 22.151 Q 205.619 24.173 207.735 28.008 A 25.687 25.687 0 0 1 208 28.501 L 220.5 51.601 L 231 24.501 L 223.5 21.501 L 223.5 20.001 L 242 20.001 L 242 21.501 L 234 24.501 L 214 76.001 A 61.759 61.759 0 0 1 212.065 80.469 Q 209.732 85.285 207.2 87.851 A 13.071 13.071 0 0 1 204.016 90.265 A 10.572 10.572 0 0 1 199 91.501 Q 195.434 91.501 193.124 89.994 A 7.674 7.674 0 0 1 192 89.101 Q 189.5 86.701 189.5 82.501 A 11.322 11.322 0 0 1 189.732 80.14 Q 190.05 78.649 190.805 77.521 A 6.44 6.44 0 0 1 191.55 76.601 A 6.85 6.85 0 0 1 195.529 74.609 A 9.677 9.677 0 0 1 197 74.501 Q 197.8 74.501 198.6 74.651 A 18.955 18.955 0 0 0 198.948 74.713 Q 199.433 74.795 199.666 74.801 A 1.374 1.374 0 0 0 199.7 74.801 Z M 10.2 53.301 L 11.5 53.501 L 11.5 68.501 A 4.321 4.321 0 0 0 12.288 68.856 A 3.551 3.551 0 0 0 12.9 69.001 A 12.521 12.521 0 0 0 16.028 69.494 A 14.164 14.164 0 0 0 16.5 69.501 A 9.979 9.979 0 0 0 26.036 63.669 Q 28.5 58.837 28.5 50.001 L 28.5 3.001 L 22.5 1.501 L 22.5 0.001 L 51 0.001 L 51 1.501 L 45 3.001 L 45 50.001 A 26.566 26.566 0 0 1 44.25 56.51 A 17.799 17.799 0 0 1 38.5 65.951 Q 32 71.501 18.5 71.501 Q 9.3 71.501 4.65 68.301 A 13.208 13.208 0 0 1 2.198 66.165 A 8.348 8.348 0 0 1 0 60.501 A 9.137 9.137 0 0 1 0.301 58.096 A 6.723 6.723 0 0 1 2.05 55.051 Q 4.1 53.001 7.5 53.001 Q 8.3 53.001 9.1 53.151 A 18.955 18.955 0 0 0 9.448 53.213 Q 9.933 53.295 10.166 53.301 A 1.374 1.374 0 0 0 10.2 53.301 Z M 120 70.001 L 120 68.501 L 126 67.001 L 126 3.001 L 120 1.501 L 120 0.001 L 133 0.001 Q 140.142 0.001 141.617 5.668 A 13.26 13.26 0 0 1 142 9.001 L 142 67.001 L 148 68.501 L 148 70.001 L 120 70.001 Z M 154 70.001 L 154 68.501 L 160 67.001 L 160 3.001 L 154 1.501 L 154 0.001 L 167 0.001 Q 174.142 0.001 175.617 5.668 A 13.26 13.26 0 0 1 176 9.001 L 176 67.001 L 182 68.501 L 182 70.001 L 154 70.001 Z M 77.443 70.63 A 35.11 35.11 0 0 0 85.5 71.501 A 35.11 35.11 0 0 0 93.558 70.63 A 23.282 23.282 0 0 0 104.95 64.451 A 23.282 23.282 0 0 0 111.129 53.059 A 35.11 35.11 0 0 0 112 45.001 A 35.11 35.11 0 0 0 111.129 36.944 A 23.282 23.282 0 0 0 104.95 25.551 A 23.282 23.282 0 0 0 93.558 19.373 A 35.11 35.11 0 0 0 85.5 18.501 A 35.11 35.11 0 0 0 77.443 19.373 A 23.282 23.282 0 0 0 66.05 25.551 A 23.282 23.282 0 0 0 59.872 36.944 A 35.11 35.11 0 0 0 59 45.001 A 35.11 35.11 0 0 0 59.872 53.059 A 23.282 23.282 0 0 0 66.05 64.451 A 23.282 23.282 0 0 0 77.443 70.63 Z M 85.5 69.501 A 5.706 5.706 0 0 0 89.332 67.978 Q 90.232 67.194 91.041 66.005 A 17.251 17.251 0 0 0 92.25 63.901 Q 94.459 59.404 94.894 49.939 A 107.878 107.878 0 0 0 95 45.001 Q 95 31.701 92.25 26.101 A 16.648 16.648 0 0 0 90.845 23.717 Q 90.014 22.562 89.09 21.821 A 5.62 5.62 0 0 0 85.5 20.501 A 5.706 5.706 0 0 0 81.668 22.024 Q 80.769 22.809 79.959 23.998 A 17.251 17.251 0 0 0 78.75 26.101 Q 76.542 30.599 76.107 40.064 A 107.878 107.878 0 0 0 76 45.001 Q 76 58.301 78.75 63.901 A 16.648 16.648 0 0 0 80.156 66.285 Q 80.987 67.441 81.911 68.181 A 5.62 5.62 0 0 0 85.5 69.501 Z" vector-effect="non-scaling-stroke"/></g></svg>